<svg version="1.1" xmlns="http://www.w3.org/2000/svg" xmlns:xlink="http://www.w3.org/1999/xlink" width="47.2625" height="60.68973" viewBox="0,0,47.2625,60.68973"><defs><radialGradient cx="240" cy="180.00001" r="18.01366" gradientUnits="userSpaceOnUse" id="color-1"><stop offset="0" stop-color="#d60026"/><stop offset="1" stop-color="#a60039"/></radialGradient><linearGradient x1="226.48487" y1="172.37938" x2="252.47215" y2="188.59425" gradientUnits="userSpaceOnUse" id="color-2"><stop offset="0" stop-color="#a60039"/><stop offset="1" stop-color="#d60026"/></linearGradient><linearGradient x1="239.34146" y1="141.77394" x2="239.34146" y2="165.77394" gradientTransform="translate(-432.92293,-319.54787) scale(2,2)" gradientUnits="userSpaceOnUse" id="color-3"><stop offset="0" stop-color="#d60026"/><stop offset="1" stop-color="#a60039"/></linearGradient></defs><g transform="translate(-215.96147,-138.07394)"><g data-paper-data="{&quot;isPaintingLayer&quot;:true}" fill-rule="nonzero" stroke="#000000" stroke-linecap="butt" stroke-linejoin="miter" stroke-miterlimit="10" stroke-dasharray="" stroke-dashoffset="0" style="mix-blend-mode: normal"><path d="M224.66785,195.69292c-1.28575,-1.338 -2.06937,-8.4906 -2.13393,-15.64586c-0.06392,-7.08508 0.57718,-14.17276 2.13393,-15.62043c3.30983,-3.81428 28.47898,-2.64064 30.75374,0c2.84419,3.30164 2.61695,29.94755 0,31.2663c-2.61695,2.58518 -27.32804,3.56492 -30.75374,0z" fill="url(#color-1)" stroke-width="1.5"/><path d="M222.16848,179.32453c-0.33314,-1.58123 6.44971,-13.93616 9.22039,-15.27933c2.02804,-0.62344 16.13947,-0.79668 18.06046,0.54732c2.94925,2.06342 8.40534,14.07633 8.64824,15.64882c0.35587,1.12804 -7.84826,15.86806 -9.08288,15.52078c-1.52191,0.34264 -14.65469,1.81556 -18.04407,-0.30024c-3.5242,-2.19995 -8.34086,-13.94786 -8.80214,-16.13735z" fill="url(#color-2)" stroke-width="1.5"/><text transform="translate(216.46147,159.77394) scale(0.5,0.5)" font-size="40" xml:space="preserve" fill="url(#color-3)" fill-rule="nonzero" stroke="#000000" stroke-width="2" stroke-linecap="butt" stroke-linejoin="miter" stroke-miterlimit="10" stroke-dasharray="" stroke-dashoffset="0" font-family="Sans Serif" font-weight="normal" text-anchor="start" style="mix-blend-mode: normal"><tspan x="0" dy="0">675$</tspan></text></g></g></svg>