<svg version="1.1" xmlns="http://www.w3.org/2000/svg" xmlns:xlink="http://www.w3.org/1999/xlink" width="60.7532" height="78.61" viewBox="0,0,60.7532,78.61"><g transform="translate(-210.00031,-141)"><g data-paper-data="{&quot;isPaintingLayer&quot;:true}" fill-rule="nonzero" stroke="none" stroke-width="1" stroke-linecap="butt" stroke-linejoin="miter" stroke-miterlimit="10" stroke-dasharray="" stroke-dashoffset="0" style="mix-blend-mode: normal"><path d="M268.691,212.09c-0.04,0.06 -0.07,0.12 -0.1,0.18c-2.46,4.29 -6.94,6.76 -12.27,6.76c-0.93,0 -1.98,-0.1 -3.62,-0.33c-0.5,-0.07 -0.78,-0.1 -0.9,-0.11l-7.55,0.17c-2.34,0.06 -5.69,0.14 -10.04,0.26c-0.71,0.05 -2.37,0.17 -6.22,0.49c-0.72,0.07 -1.43,0.1 -2.09,0.1c-2,0 -3.78,-0.29 -5.43,-0.89c-2.32,-0.83 -4.45,-2.31 -6.5,-4.51c-3.17,-3.39 -4.53,-7.77 -3.76,-12.05c0.56,-3.21 2.33,-5.58 3.63,-7.1c0.04,-0.04 0.08,-0.09 0.12,-0.13c0.41,-0.47 0.74,-0.83 1,-1.12c1.64,-2.81 3.95,-6.68 6.86,-11.53c0.02,-0.04 0.05,-0.08 0.07,-0.11c0.01,-0.02 0.02,-0.03 0.02,-0.04c-1.15,-0.34 -2.25,-0.82 -3.27,-1.43c-2.97,-1.77 -6.45,-5.45 -6.65,-13.01c-0.01,-0.1 -0.01,-0.2 -0.01,-0.3v-7.12c0,-0.28 0.01,-0.56 0.03,-0.83c0,-0.02 0.03,-0.36 0.01,-1.28c-0.85,-5.16 0.68,-9.9 4.31,-13.16c2.03,-1.82 5.58,-4 10.96,-4c1.86,0 4.49,0.15 8.04,0.47c3.82,0.3 6.27,0.49 7.38,0.58h7.51c1.41,-0.07 2.53,-0.05 3.58,0.03c1.62,0.12 3.31,0.41 5.01,0.87c2.71,0.72 5.12,2.34 7.18,4.8c0.52,0.63 0.97,1.31 1.35,2.03c0.44,0.67 0.8,1.38 1.09,2.12c1.03,2.68 1.65,7.02 -1.3,12.45c-0.03,0.04 -0.05,0.08 -0.07,0.12c-1.36,2.44 -2.72,4.72 -4.06,6.81c2.67,1.51 4.68,3.96 5.78,7.07l0.47,1.25c0.47,1.24 0.71,2.56 0.71,3.89v5.27c0,0.07 0,0.14 -0.01,0.2c-0.04,2.77 0.02,6.76 0.2,11.88c0.85,2.62 1.14,6.52 -1.46,11.25z" fill="#00cccc"/><path d="M259.661,204.158c0.233,0.587 0.029,1.466 -0.615,2.639c-0.471,0.821 -1.379,1.231 -2.728,1.231c-0.352,0 -1.041,-0.073 -2.066,-0.22c-1.027,-0.146 -1.834,-0.221 -2.419,-0.221l-7.828,0.176c-2.405,0.06 -5.836,0.147 -10.292,0.265c-0.938,0.059 -3.166,0.234 -6.685,0.527c-1.231,0.117 -2.17,0.058 -2.814,-0.176c-0.646,-0.233 -1.379,-0.792 -2.199,-1.671c-0.822,-0.88 -1.144,-1.76 -0.968,-2.64c0.058,-0.409 0.439,-1.025 1.144,-1.847c0.938,-1.058 1.495,-1.674 1.671,-1.852c1.642,-2.82 4.104,-6.963 7.389,-12.427c2.756,-4.465 5.131,-8.078 7.125,-10.84c1.993,-2.762 3.987,-5.524 5.981,-8.286c3.343,-4.583 5.658,-8.049 6.948,-10.4c-0.586,-0.176 -1.378,-0.264 -2.374,-0.264h-5.981c-0.88,0 -2.361,-0.029 -4.442,-0.088c-2.082,-0.058 -3.65,-0.088 -4.706,-0.088c-2.287,0 -3.665,0.059 -4.134,0.176c-0.176,0.059 -0.279,0.323 -0.308,0.791c-0.03,0.471 -0.104,1.32 -0.22,2.552c0.058,-0.117 0.204,1.262 0.439,4.134c0,0.294 0.117,0.938 0.352,1.936c0.176,0.703 0.205,1.231 0.088,1.583c-0.176,0.646 -0.352,1.026 -0.527,1.144c-0.88,0.938 -2.054,1.407 -3.519,1.407c-0.646,0 -1.202,-0.146 -1.671,-0.439c-0.822,-0.469 -1.262,-1.76 -1.319,-3.871c0,-1.7 0,-4.074 0,-7.124c0.058,-0.762 0.058,-1.876 0,-3.343c-0.411,-1.7 -0.177,-2.947 0.703,-3.738c0.88,-0.792 2.081,-1.188 3.606,-1.188c1.524,0 3.899,0.146 7.125,0.439c4.574,0.352 7.183,0.559 7.828,0.616c1.349,0 3.167,0 5.454,0c0.645,0 1.583,0 2.814,0c0.996,-0.058 1.816,-0.058 2.463,0c0.938,0.059 1.935,0.234 2.99,0.526c0.469,0.116 0.997,0.524 1.583,1.226c0.117,0.293 0.322,0.644 0.616,1.053c0.293,0.76 0.058,1.841 -0.704,3.242c-1.994,3.565 -3.929,6.69 -5.805,9.379c-2.405,3.155 -5.688,7.713 -9.852,13.673c-1.701,2.454 -4.164,6.224 -7.389,11.307c-0.938,1.694 -2.375,4.235 -4.311,7.625c-0.118,0.233 -0.146,0.468 -0.088,0.701c0.234,0.352 0.557,0.526 0.968,0.526c2.932,0.118 6.655,0.146 11.171,0.088c6.45,-0.117 10.203,-0.176 11.259,-0.176c-0.059,-2.873 0,-6.89 0.176,-12.051c0,-0.586 -0.074,-1.597 -0.22,-3.035c-0.147,-1.436 -0.22,-2.447 -0.22,-3.034c0,-2.404 0.938,-3.519 2.814,-3.343c0.352,-0.058 0.82,-0.058 1.407,0c0.469,0.176 0.821,0.616 1.056,1.319c0.176,0.471 0.352,0.939 0.528,1.407v5.278c-0.06,3.284 0.028,8.004 0.264,14.161c0.002,0.121 0.148,0.531 0.442,1.235z" fill="#ffffff"/></g></g></svg>