<svg version="1.1" xmlns="http://www.w3.org/2000/svg" xmlns:xlink="http://www.w3.org/1999/xlink" width="444.04057" height="370.14673" viewBox="0,0,444.04057,370.14673"><g transform="translate(3.51212,-22.8614)"><g data-paper-data="{&quot;isPaintingLayer&quot;:true}" fill="none" fill-rule="nonzero" stroke="#000000" stroke-width="1" stroke-linecap="round" stroke-linejoin="miter" stroke-miterlimit="10" stroke-dasharray="" stroke-dashoffset="0" style="mix-blend-mode: normal"><path d="M-3.01212,259.29069c0,0 56.17474,78.42086 128.80983,79.12566c106.78466,1.03617 266.13337,-210.97753 182.30425,-237.16154c-56.75511,-5.81716 -71.67325,40.7218 -88.27988,53.89368c-26.81173,21.26626 -94.40219,22.27668 -79.36098,-33.68709c6.08144,-22.62718 48.47223,-47.31791 65.38764,-37.16799c91.21446,54.73234 -28.84219,197.9139 -72.69364,184.18632c-109.42647,-34.25567 -101.42142,-176.93623 -30.23718,-217.27065c69.71901,-39.50419 167.7088,-32.34695 246.65345,-7.22792c74.38053,23.6668 65.86965,35.07819 69.07155,39.01894c3.03151,46.12143 -54.16036,47.01208 -62.46658,86.61742c-8.58511,38.5994 83.17966,33.97744 83.83555,79.34185c1.35447,50.45302 -80.80224,37.87829 -98.68641,71.5613c-16.12682,30.37323 18.05599,71.98747 18.05599,71.98747"/></g></g></svg>