<svg version="1.1" xmlns="http://www.w3.org/2000/svg" xmlns:xlink="http://www.w3.org/1999/xlink" width="67.24418" height="70.63" viewBox="0,0,67.24418,70.63"><g transform="translate(-207.00037,-145)"><g data-paper-data="{&quot;isPaintingLayer&quot;:true}" fill-rule="nonzero" stroke="none" stroke-width="1" stroke-linecap="butt" stroke-linejoin="miter" stroke-miterlimit="10" stroke-dasharray="" stroke-dashoffset="0" style="mix-blend-mode: normal"><path d="M273.979,187.26c-0.01,0.1 -0.02,0.2 -0.03,0.3c-0.64,5.02 -2.87,9.67 -6.63,13.82c-0.04,0.05 -0.09,0.1 -0.14,0.15c-2.76,2.93 -6.44,5.51 -11.25,7.88c-7.44,3.65 -14.43,5.59 -20.82,5.78c-1,0.06 -2.59,0.13 -4.75,0.22c-3.52,0.14 -3.63,0.14 -3.92,0.14h-4.26c-0.5,0.05 -0.99,0.08 -1.48,0.08c-2.79,0 -5.47,-0.83 -7.76,-2.39c-3.2,-2.18 -5.27,-5.52 -5.83,-9.41c-0.32,-2.27 0.07,-4.59 1.13,-6.63c1.94,-3.75 5.3,-6.37 9.38,-7.45c-0.23,-3.94 -0.58,-10.01 -1.04,-18.22c-0.36,-0.13 -0.71,-0.27 -1.06,-0.42c-5.09,-2.2 -8.25,-6.81 -8.25,-12.03c0,-1.96 0.45,-3.88 1.34,-5.72c2.47,-5.24 7.72,-8.36 14.05,-8.36c0.86,0 1.94,0.07 3.6,0.22c0.08,0.01 0.16,0.02 0.25,0.03c0.09,0.01 0.18,0.02 0.26,0.03c0.3,-0.02 0.61,-0.03 0.95,-0.03c0.91,0 2.43,0.06 7.42,0.49c3.61,0.34 6.5,0.75 8.91,1.24c0.06,0.02 0.13,0.03 0.19,0.04c10.28,2.31 18.76,8.72 25.23,19.07c0.02,0.04 0.04,0.08 0.06,0.12c1.3,2.14 2.49,4.93 3.72,8.77c0.01,0.04 0.02,0.07 0.03,0.1c0.99,3.2 1.21,7.07 0.7,12.18z" fill="#00cccc"/><path d="M263.035,186.169c-0.352,2.757 -1.643,5.366 -3.871,7.829c-1.818,1.935 -4.516,3.782 -8.092,5.541c-6.1,2.991 -11.582,4.546 -16.448,4.662c-0.938,0.06 -2.507,0.132 -4.706,0.22c-2.199,0.088 -3.357,0.132 -3.475,0.132h-5.013c-0.88,0.177 -1.643,0.045 -2.287,-0.396c-0.645,-0.439 -1.025,-1.069 -1.144,-1.891c0.822,-1.584 2.433,-2.258 4.838,-2.023c3.752,0.352 5.894,0.439 6.421,0.264c0,-1.289 -0.059,-3.02 -0.176,-5.189c-0.234,-2.991 -0.382,-4.808 -0.439,-5.454c-0.294,-4.926 -0.792,-13.75 -1.495,-26.476c-0.06,-0.88 -0.206,-1.524 -0.44,-1.936c-0.294,-0.176 -0.675,-0.176 -1.144,0c-0.586,0.176 -1.29,0.264 -2.11,0.264c-1.291,0 -2.479,-0.233 -3.562,-0.703c-1.085,-0.469 -1.627,-1.113 -1.627,-1.936c0,-0.293 0.088,-0.615 0.264,-0.968c0.646,-1.407 2.022,-2.11 4.134,-2.11c0.469,0 1.319,0.059 2.551,0.176c0.997,0.118 1.729,0.146 2.199,0.088c0.469,-0.058 2.727,0.088 6.772,0.439c3.108,0.294 5.659,0.646 7.653,1.056c7.329,1.643 13.427,6.363 18.296,14.162c0.82,1.35 1.699,3.489 2.639,6.421c0.526,1.701 0.614,4.309 0.262,7.828zM256.526,189.863c1.172,-1.935 1.76,-4.046 1.76,-6.333c0,-5.511 -3.021,-10.995 -9.06,-16.448c-0.763,-0.704 -2.435,-1.76 -5.014,-3.167c-3.461,-1.816 -7.419,-2.814 -11.875,-2.99c0.586,13.488 1.144,23.456 1.671,29.906c0.234,2.111 0.586,5.249 1.056,9.412c3.049,0.176 6.51,-0.513 10.38,-2.067c3.87,-1.553 7.153,-3.62 9.852,-6.201c0.056,-0.058 0.468,-0.762 1.23,-2.112z" fill="#ffffff"/></g></g></svg>