<svg version="1.1" xmlns="http://www.w3.org/2000/svg" xmlns:xlink="http://www.w3.org/1999/xlink" width="46.94171" height="20.3133" viewBox="0,0,46.94171,20.3133"><defs><linearGradient x1="208.84445" y1="180.04957" x2="235.34444" y2="180.04957" gradientUnits="userSpaceOnUse" id="color-1"><stop offset="0" stop-color="#ff514a"/><stop offset="1" stop-color="#ff2121"/></linearGradient><radialGradient cx="239.40319" cy="179.30001" r="9.29412" gradientUnits="userSpaceOnUse" id="color-2"><stop offset="0" stop-color="#ff4a4a"/><stop offset="1" stop-color="#ff2121"/></radialGradient><linearGradient x1="243.6" y1="176.31322" x2="248.82857" y2="176.31322" gradientUnits="userSpaceOnUse" id="color-3"><stop offset="0" stop-color="#b4b4b4"/><stop offset="1" stop-color="#ffffff"/></linearGradient><linearGradient x1="246.87992" y1="176.42684" x2="248.28762" y2="176.42684" gradientUnits="userSpaceOnUse" id="color-4"><stop offset="0" stop-color="#b4b4b4"/><stop offset="1" stop-color="#ffffff"/></linearGradient><linearGradient x1="243.7" y1="184.21322" x2="248.92857" y2="184.21322" gradientUnits="userSpaceOnUse" id="color-5"><stop offset="0" stop-color="#b4b4b4"/><stop offset="1" stop-color="#ffffff"/></linearGradient><linearGradient x1="246.97993" y1="184.32684" x2="248.38762" y2="184.32684" gradientUnits="userSpaceOnUse" id="color-6"><stop offset="0" stop-color="#b4b4b4"/><stop offset="1" stop-color="#ffffff"/></linearGradient></defs><g transform="translate(-203.35241,-169.84337)"><g data-paper-data="{&quot;isPaintingLayer&quot;:true}" fill-rule="nonzero" stroke="#000000" stroke-width="2" stroke-linecap="butt" stroke-linejoin="miter" stroke-miterlimit="10" stroke-dasharray="" stroke-dashoffset="0" style="mix-blend-mode: normal"><path d="M208.84445,180.60002c0,0 5.72244,-3.90152 9.3699,-4.72736c2.30518,-0.52193 6.51958,1.72023 10.07031,1.53509c3.90844,-0.20379 7.05978,-2.80773 7.05978,-2.80773v10.33334c0,0 -4.07425,1.26696 -7.83633,0.00899c-3.60691,-1.20608 -6.85506,-4.93058 -9.22323,-5.31783c-3.6652,-0.59934 -9.44043,0.9755 -9.44043,0.9755z" fill="url(#color-1)"/><path d="M249.29412,180.00003c0,5.05707 -4.16112,9.15665 -9.29412,9.15665c-5.13302,0 -9.29412,-4.09957 -9.29412,-9.15665c0,-5.05707 4.16112,-9.15665 9.29412,-9.15665c5.13302,0 9.29412,4.09957 9.29412,9.15665z" fill="url(#color-2)"/><path d="M248.82857,176.31322c0,1.88808 -1.17045,3.41868 -2.61429,3.41868c-1.44383,0 -2.61428,-1.5306 -2.61428,-3.41868c0,-1.88808 1.17045,-3.41868 2.61428,-3.41868c1.44383,0 2.61429,1.53059 2.61429,3.41868z" fill="url(#color-3)"/><path d="M248.14685,176.42684c0,0.56365 -0.2521,1.02058 -0.56308,1.02058c-0.31098,0 -0.56308,-0.45693 -0.56308,-1.02058c0,-0.56365 0.2521,-1.02058 0.56308,-1.02058c0.31098,0 0.56308,0.45693 0.56308,1.02058z" fill="url(#color-4)"/><path d="M248.92857,184.21322c0,1.88808 -1.17046,3.41868 -2.61428,3.41868c-1.44383,0 -2.61428,-1.5306 -2.61428,-3.41868c0,-1.88808 1.17046,-3.41868 2.61428,-3.41868c1.44383,0 2.61428,1.5306 2.61428,3.41868z" fill="url(#color-5)"/><path d="M248.24685,184.32684c0,0.56365 -0.25209,1.02058 -0.56307,1.02058c-0.31098,0 -0.56308,-0.45693 -0.56308,-1.02058c0,-0.56365 0.2521,-1.02058 0.56308,-1.02058c0.31098,0 0.56307,0.45693 0.56307,1.02058z" fill="url(#color-6)"/></g></g></svg>