<svg version="1.1" xmlns="http://www.w3.org/2000/svg" xmlns:xlink="http://www.w3.org/1999/xlink" width="43.41094" height="31.79283" viewBox="0,0,43.41094,31.79283"><defs><linearGradient x1="247.99301" y1="174.97902" x2="261.67372" y2="174.97902" gradientUnits="userSpaceOnUse" id="color-1"><stop offset="0" stop-color="#00c755"/><stop offset="1" stop-color="#009458"/></linearGradient><linearGradient x1="247.54814" y1="186.05214" x2="261.22883" y2="186.05214" gradientUnits="userSpaceOnUse" id="color-2"><stop offset="0" stop-color="#00c755"/><stop offset="1" stop-color="#009458"/></linearGradient><linearGradient x1="224.00852" y1="180.19824" x2="254.30983" y2="180.19824" gradientUnits="userSpaceOnUse" id="color-3"><stop offset="0" stop-color="#009458"/><stop offset="1" stop-color="#00c755"/></linearGradient><linearGradient x1="251.29045" y1="180.31947" x2="254.01288" y2="180.31947" gradientUnits="userSpaceOnUse" id="color-4"><stop offset="0" stop-color="#003b35"/><stop offset="1" stop-color="#005848"/></linearGradient><radialGradient cx="262.52171" cy="180.52041" r="3.39775" gradientUnits="userSpaceOnUse" id="color-5"><stop offset="0" stop-color="#fdff94"/><stop offset="1" stop-color="#edff00"/></radialGradient></defs><g transform="translate(-223.25852,-164.30066)"><g data-paper-data="{&quot;isPaintingLayer&quot;:true}" fill-rule="nonzero" stroke-width="1.5" stroke-linecap="butt" stroke-linejoin="miter" stroke-miterlimit="10" stroke-dasharray="" stroke-dashoffset="0" style="mix-blend-mode: normal"><path d="M252.24909,179.07483l-4.25608,-5.17631c0,0 3.79014,-1.76155 5.68588,-2.64263c1.89663,-0.8815 7.99483,0.07732 7.99483,0.07732c0,0 -4.6224,0.68495 -5.79802,2.41247c-1.19765,1.7599 -3.62661,5.32915 -3.62661,5.32915z" fill="url(#color-1)" stroke="#005467"/><path d="M255.43082,187.28547c1.17562,1.72753 5.79801,2.41247 5.79801,2.41247c0,0 -6.09819,0.95882 -7.99482,0.07732c-1.89574,-0.88109 -5.68587,-2.64263 -5.68587,-2.64263l4.25608,-5.17631c0,0 2.42896,3.56926 3.62661,5.32915z" data-paper-data="{&quot;index&quot;:null}" fill="url(#color-2)" stroke="#005467"/><path d="M238.71237,195.3435c-2.54746,-0.14488 -14.91692,-12.88393 -14.70106,-15.82809c-0.11788,-3.48717 13.17545,-14.72727 15.56861,-14.46006c2.99222,0.3341 15.40579,13.93003 14.70106,15.82809c-0.10927,2.53917 -12.15822,14.65401 -15.56861,14.46006z" fill="url(#color-3)" stroke="#005467"/><path d="M251.29045,184.089v-7.53905h2.72243v7.53905z" fill="url(#color-4)" stroke="#005467"/><path d="M265.91946,180.52041c0,1.78925 -1.52122,3.23971 -3.39775,3.23971c-1.87653,0 -3.39775,-1.45047 -3.39775,-3.23971c0,-1.78925 1.52123,-3.23971 3.39775,-3.23971c1.87653,0 3.39775,1.45047 3.39775,3.23971z" fill="url(#color-5)" stroke="#ffb600"/></g></g></svg>