<svg version="1.1" xmlns="http://www.w3.org/2000/svg" xmlns:xlink="http://www.w3.org/1999/xlink" width="103.93333" height="105.6" viewBox="0,0,103.93333,105.6"><defs><radialGradient cx="240.00006" cy="180" r="51.8" gradientUnits="userSpaceOnUse" id="color-1"><stop offset="0" stop-color="#00a3ff" stop-opacity="0"/><stop offset="1" stop-color="#00a3ff" stop-opacity="0.66935"/></radialGradient></defs><g transform="translate(-188.03336,-127.2)"><g data-paper-data="{&quot;isPaintingLayer&quot;:true}" fill-rule="nonzero" stroke="#000000" stroke-width="2" stroke-linejoin="miter" stroke-miterlimit="10" stroke-dasharray="" stroke-dashoffset="0" style="mix-blend-mode: normal"><path d="M189.03337,180c0,-28.60835 22.81855,-51.8 50.96667,-51.8c28.14812,0 50.96666,23.19165 50.96666,51.8c0,28.60835 -22.81855,51.8 -50.96666,51.8c-28.14811,0 -50.96667,-23.19165 -50.96667,-51.8z" fill="url(#color-1)" stroke-linecap="butt"/><path d="M233.86667,165.8l-14.33329,-9.33334l9.33333,-8.66667l-7.66667,-8.33333l8.33333,-10" fill="none" stroke-linecap="round"/><path d="M260.86667,151.13333l-2.66666,-13.33333l6,-2" fill="none" stroke-linecap="round"/><path d="M244.86667,137.46666l-3,-5.66667l3.66667,-1.66667l1.66667,-1.33333" fill="none" stroke-linecap="round"/><path d="M252.53334,160.8l18.66667,5l11.66667,-14.33333" fill="none" stroke-linecap="round"/><path d="M197.86667,150.46666l2.33333,11.66667l8.66667,1" fill="none" stroke-linecap="round"/></g></g></svg>