<svg version="1.1" xmlns="http://www.w3.org/2000/svg" xmlns:xlink="http://www.w3.org/1999/xlink" width="70.86999" height="59.16187" viewBox="0,0,70.86999,59.16187"><defs><linearGradient x1="222.52963" y1="180.00001" x2="257.47044" y2="180.00001" gradientUnits="userSpaceOnUse" id="color-1"><stop offset="0" stop-color="#00a60d"/><stop offset="1" stop-color="#00d604"/></linearGradient><linearGradient x1="250.89313" y1="176.25469" x2="260.11344" y2="168.67354" gradientUnits="userSpaceOnUse" id="color-2"><stop offset="0" stop-color="#00890b"/><stop offset="1" stop-color="#00d604"/></linearGradient><linearGradient x1="250.44827" y1="184.31248" x2="259.66857" y2="191.89363" gradientUnits="userSpaceOnUse" id="color-3"><stop offset="0" stop-color="#00890b"/><stop offset="1" stop-color="#00d604"/></linearGradient><linearGradient x1="224.78059" y1="179.96624" x2="255.0819" y2="179.96624" gradientUnits="userSpaceOnUse" id="color-4"><stop offset="0" stop-color="#00890b"/><stop offset="1" stop-color="#00d604"/></linearGradient><linearGradient x1="252.06253" y1="180.08748" x2="254.78496" y2="180.08748" gradientUnits="userSpaceOnUse" id="color-5"><stop offset="0" stop-color="#002003"/><stop offset="1" stop-color="#005301"/></linearGradient><linearGradient x1="240.67888" y1="143.02176" x2="240.67888" y2="165.20497" gradientTransform="translate(-702.71027,-345.47032) scale(3.41647,2.1638)" gradientUnits="userSpaceOnUse" id="color-6"><stop offset="0" stop-color="#ff0000"/><stop offset="1" stop-color="#ff9700"/></linearGradient></defs><g transform="translate(-205.39059,-139.6018)"><g data-paper-data="{&quot;isPaintingLayer&quot;:true}" fill-rule="nonzero" stroke="#000000" stroke-linecap="butt" stroke-linejoin="miter" stroke-miterlimit="10" stroke-dasharray="" stroke-dashoffset="0" style="mix-blend-mode: normal"><path d="M224.66789,195.69292c-1.28575,-1.338 -2.06937,-8.4906 -2.13393,-15.64586c-0.06392,-7.08508 0.57718,-14.17276 2.13393,-15.62043c3.30983,-3.81428 28.47898,-2.64064 30.75374,0c2.84419,3.30164 2.61695,29.94755 0,31.2663c-2.61695,2.58518 -27.32804,3.56492 -30.75374,0z" fill="url(#color-1)" stroke-width="1.5"/><path d="M253.02117,178.84284l-4.25608,-5.17631c0,0 3.79014,-1.76155 5.68588,-2.64263c1.89663,-0.8815 7.99483,0.07732 7.99483,0.07732c0,0 -4.6224,0.68495 -5.79802,2.41247c-1.19765,1.7599 -3.62661,5.32915 -3.62661,5.32915z" fill="url(#color-2)" stroke-width="1.5"/><path d="M256.20291,187.05348c1.17562,1.72753 5.79801,2.41247 5.79801,2.41247c0,0 -6.09819,0.95882 -7.99482,0.07732c-1.89574,-0.88109 -5.68587,-2.64263 -5.68587,-2.64263l4.25608,-5.17631c0,0 2.42896,3.56926 3.62661,5.32915z" data-paper-data="{&quot;index&quot;:null}" fill="url(#color-3)" stroke-width="1.5"/><path d="M239.48445,195.11151c-2.54746,-0.14488 -14.91692,-12.88393 -14.70106,-15.82809c-0.11788,-3.48717 13.17545,-14.72727 15.56861,-14.46006c2.99222,0.3341 15.40579,13.93003 14.70106,15.82809c-0.10927,2.53917 -12.15822,14.65401 -15.56861,14.46006z" fill="url(#color-4)" stroke-width="1.5"/><path d="M252.06253,183.85701v-7.53905h2.72243v7.53905z" fill="url(#color-5)" stroke-width="1.5"/><text transform="translate(205.6833,159.65911) scale(0.2927,0.46215)" font-size="40" xml:space="preserve" fill="url(#color-6)" fill-rule="nonzero" stroke="#000000" stroke-width="2" stroke-linecap="butt" stroke-linejoin="miter" stroke-miterlimit="10" stroke-dasharray="" stroke-dashoffset="0" font-family="Sans Serif" font-weight="normal" text-anchor="start" style="mix-blend-mode: normal"><tspan x="0" dy="0">Not Enough!</tspan></text></g></g></svg>