<svg version="1.1" xmlns="http://www.w3.org/2000/svg" xmlns:xlink="http://www.w3.org/1999/xlink" width="52.74117" height="62.67827" viewBox="0,0,52.74117,62.67827"><defs><radialGradient cx="240" cy="180.00001" r="18.01366" gradientUnits="userSpaceOnUse" id="color-1"><stop offset="0" stop-color="#00cfd6"/><stop offset="1" stop-color="#00a594"/></radialGradient><linearGradient x1="242.40868" y1="180.6125" x2="262.7" y2="180.6125" gradientUnits="userSpaceOnUse" id="color-2"><stop offset="0" stop-color="#008577"/><stop offset="1" stop-color="#00cfd6"/></linearGradient><linearGradient x1="262.13333" y1="180.59583" x2="263.875" y2="180.59583" gradientUnits="userSpaceOnUse" id="color-3"><stop offset="0" stop-color="#000000"/><stop offset="1" stop-color="#1e1e1e"/></linearGradient><linearGradient x1="227.79705" y1="179.95821" x2="251.93786" y2="179.95821" gradientUnits="userSpaceOnUse" id="color-4"><stop offset="0" stop-color="#008577"/><stop offset="1" stop-color="#00cfd6"/></linearGradient><linearGradient x1="239.99877" y1="140.21356" x2="239.99877" y2="166.99549" gradientTransform="translate(-384.37847,-287.29811) scale(1.79224,1.79224)" gradientUnits="userSpaceOnUse" id="color-5"><stop offset="0" stop-color="#00cfd6"/><stop offset="1" stop-color="#008577"/></linearGradient></defs><g transform="translate(-213.90985,-136.08539)"><g data-paper-data="{&quot;isPaintingLayer&quot;:true}" fill-rule="nonzero" stroke="#000000" stroke-linecap="butt" stroke-linejoin="miter" stroke-miterlimit="10" stroke-dasharray="" stroke-dashoffset="0" style="mix-blend-mode: normal"><path d="M224.66785,195.69292c-1.28575,-1.338 -2.06937,-8.4906 -2.13393,-15.64586c-0.06392,-7.08508 0.57718,-14.17276 2.13393,-15.62043c3.30983,-3.81428 28.47898,-2.64064 30.75374,0c2.84419,3.30164 2.61695,29.94755 0,31.2663c-2.61695,2.58518 -27.32804,3.56492 -30.75374,0z" fill="url(#color-1)" stroke-width="1.5"/><path d="M241.2574,185.20252c0,0 -4.89123,0.11922 -5.17346,-4.40958c-0.37054,-5.94562 4.59783,-4.89547 4.59783,-4.89547l22.01824,-0.5v10.43005z" fill="url(#color-2)" stroke-width="1.5"/><path d="M263.875,180.59583c0,2.93401 -0.38988,5.3125 -0.87083,5.3125c-0.48095,0 -0.87083,-2.37849 -0.87083,-5.3125c0,-2.93401 0.38988,-5.3125 0.87083,-5.3125c0.48095,0 0.87083,2.37849 0.87083,5.3125z" fill="url(#color-3)" stroke-width="1.5"/><path d="M229.27438,190.80054c-0.88243,-0.91828 -1.42253,-5.80066 -1.47339,-10.7112c-0.05104,-4.9278 0.3906,-9.88395 1.47339,-10.89087c2.28678,-2.63531 19.67629,-1.82443 21.24794,0c1.96507,2.28112 1.80807,20.69094 0,21.60207c-1.80807,1.78612 -18.8811,2.46302 -21.24794,0z" fill="url(#color-4)" stroke-width="1.5"/><text transform="translate(214.46781,160.30086) scale(0.55796,0.55796)" font-size="40" xml:space="preserve" fill="url(#color-5)" fill-rule="nonzero" stroke="#000000" stroke-width="2" stroke-linecap="butt" stroke-linejoin="miter" stroke-miterlimit="10" stroke-dasharray="" stroke-dashoffset="0" font-family="Sans Serif" font-weight="normal" text-anchor="start" style="mix-blend-mode: normal"><tspan x="0" dy="0">100$</tspan></text></g></g></svg>