<svg version="1.1" xmlns="http://www.w3.org/2000/svg" xmlns:xlink="http://www.w3.org/1999/xlink" width="103.93333" height="105.6" viewBox="0,0,103.93333,105.6"><defs><radialGradient cx="240.00007" cy="180" r="51.8" gradientUnits="userSpaceOnUse" id="color-1"><stop offset="0" stop-color="#00a3ff" stop-opacity="0"/><stop offset="1" stop-color="#00a3ff" stop-opacity="0.66935"/></radialGradient></defs><g transform="translate(-188.03337,-127.2)"><g data-paper-data="{&quot;isPaintingLayer&quot;:true}" fill-rule="nonzero" stroke="#000000" stroke-width="2" stroke-linejoin="miter" stroke-miterlimit="10" stroke-dasharray="" stroke-dashoffset="0" style="mix-blend-mode: normal"><path d="M189.03338,180c0,-28.60835 22.81855,-51.8 50.96667,-51.8c28.14812,0 50.96666,23.19165 50.96666,51.8c0,28.60835 -22.81855,51.8 -50.96666,51.8c-28.14811,0 -50.96667,-23.19165 -50.96667,-51.8z" fill="url(#color-1)" stroke-linecap="butt"/><path d="M233.86668,165.8l-14.33329,-9.33334l9.33333,-8.66667l-7.66667,-8.33333l8.33333,-10" fill="none" stroke-linecap="round"/><path d="M264.20002,135.8l-6,2l2.66666,13.33333l-7.00001,1.66667" fill="none" stroke-linecap="round"/><path d="M247.20002,128.79999l-1.66667,1.33333l-3.66667,1.66667l3,5.66667l-8.33334,14.66667" fill="none" stroke-linecap="round"/><path d="M282.86669,151.46667l-11.66667,14.33333l-18.66667,-5l3.99999,10.66666" fill="none" stroke-linecap="round"/><path d="M197.86668,150.46666l2.33333,11.66667l8.66667,1l4.66666,12" fill="none" stroke-linecap="round"/><path d="M209.2,137.8v4.33333l4.66667,2" fill="none" stroke-linecap="round"/><path d="M235.2,129.46666l-2,6l4.33333,6" fill="none" stroke-linecap="round"/><path d="M252.53334,130.46666l3.33333,9.66667l-8,4.33333l-0.66667,5.66667" fill="none" stroke-linecap="round"/><path d="M275.53334,143.46666v4.66667l-4.33333,0.66667" fill="none" stroke-linecap="round"/><path d="M201.86667,145.13333l4,3" fill="none" stroke-linecap="round"/></g></g></svg>