<svg version="1.1" xmlns="http://www.w3.org/2000/svg" xmlns:xlink="http://www.w3.org/1999/xlink" width="38.18571" height="38.18572" viewBox="0,0,38.18571,38.18572"><defs><radialGradient cx="240.00001" cy="180" r="18.34285" gradientUnits="userSpaceOnUse" id="color-1"><stop offset="0" stop-color="#00d6b3"/><stop offset="1" stop-color="#009ea6"/></radialGradient></defs><g transform="translate(-220.90714,-160.90714)"><g data-paper-data="{&quot;isPaintingLayer&quot;:true}" fill-rule="nonzero" stroke="#000000" stroke-width="1.5" stroke-linecap="butt" stroke-linejoin="miter" stroke-miterlimit="10" stroke-dasharray="" stroke-dashoffset="0" style="mix-blend-mode: normal"><path d="M221.65715,190.72884c0,-7.16513 0,-17.38475 0,-21.45769c0,-3.35767 4.59787,-7.61401 8.13316,-7.61401c4.1781,0 14.4452,0 21.45768,0c4.10511,0 7.09487,2.98767 7.09487,7.09488c0,7.06873 0,17.45349 0,21.63073c0,3.47661 -4.1874,7.96011 -9.51751,7.96011c-7.35494,0 -16.88567,0 -20.59245,0c-2.98764,0 -6.57574,-3.23711 -6.57574,-7.61401z" fill="url(#color-1)"/><path d="M228.36769,186.60099c0,-4.70217 0,-12.25332 0,-14.41303c0,-1.12735 1.37844,-2.2889 2.67038,-2.2889c2.55606,0 11.74199,0 16.21303,0c1.508,0 2.47964,1.16154 2.47964,2.2889c0,0.68415 0,3.43335 0,3.43335h6.56485l-0.06329,7.59563l-6.50156,0.22477c0,0 0,2.71494 0,3.62409c0,2.03542 -0.9682,3.43335 -2.47964,3.43335c-4.75788,0 -13.09888,0 -15.36674,0c-0.88334,0 -3.51668,-1.65797 -3.51668,-3.89816z" fill="#ffffff"/></g></g></svg>