<svg version="1.1" xmlns="http://www.w3.org/2000/svg" xmlns:xlink="http://www.w3.org/1999/xlink" width="81.70556" height="78.32" viewBox="0,0,81.70556,78.32"><g transform="translate(-200,-141)"><g data-paper-data="{&quot;isPaintingLayer&quot;:true}" fill-rule="nonzero" stroke="none" stroke-width="1" stroke-linecap="butt" stroke-linejoin="miter" stroke-miterlimit="10" stroke-dasharray="" stroke-dashoffset="0" style="mix-blend-mode: normal"><path d="M275.58,211.5c-2.4,1.65 -5.27,2.6 -8.3,2.76c-0.42,0.03 -0.83,0.03 -1.24,0c-1.49,-0.08 -4.08,-0.06 -7.43,0.08c-1.92,0.24 -4.37,0.37 -7.6,0.38c-0.26,0.04 -0.59,0.09 -0.99,0.16c-2.51,0.42 -4.38,0.53 -6.08,0.41c-2.08,2.28 -4.91,3.71 -8.11,3.97c-0.1,0.01 -0.19,0.01 -0.29,0.02c-0.53,0.03 -1.06,0.04 -1.57,0.04c-3.27,0 -6.27,-0.61 -8.9,-1.82c-0.06,-0.02 -0.12,-0.05 -0.18,-0.08c-0.25,-0.08 -0.97,-0.29 -2.44,-0.6c-1.42,-0.23 -3.44,-0.57 -6.09,-1.03c-1.33,-0.22 -2.75,-0.45 -4.2,-0.68c-0.4,-0.06 -0.79,-0.15 -1.18,-0.26c-6.45,-1.77 -10.63,-6.9 -10.63,-13.06c0,-1.65 0.33,-3.3 0.97,-4.9c0.43,-1.06 1.02,-2.05 1.75,-2.93c1.14,-1.36 2.91,-3.23 5.61,-4.34c2.65,-1.16 5.55,-1.76 8.63,-1.77c0.87,-1.6 1.16,-2.05 1.43,-2.46c0.41,-0.61 1.14,-1.67 2.91,-4.08c-0.83,-1.1 -1.72,-2.29 -2.68,-3.57c-0.04,-0.06 -0.07,-0.11 -0.11,-0.16c-0.91,-1.27 -2.24,-3.08 -3.96,-5.41c-0.4,-0.02 -0.77,-0.04 -1.12,-0.08c-0.09,-0.01 -0.18,-0.02 -0.27,-0.03c-10.17,-1.27 -12.62,-8.33 -13.18,-10.92c-0.22,-1.04 -0.33,-2.07 -0.33,-3.08c0,-4.85 2.47,-9.25 6.76,-11.74c2.5,-1.46 5.36,-2.32 8.47,-2.57c0.29,-0.02 0.58,-0.03 0.87,-0.03c1.08,0 2.15,-0.03 3.18,-0.08h0.12c1.44,-0.05 3.59,-0.16 6.44,-0.31c0.39,-0.06 0.81,-0.15 1.24,-0.24c0.31,-0.07 0.63,-0.12 0.94,-0.16c2.11,-0.26 3.89,-0.33 5.33,-0.24c2.17,0.11 4.16,0.68 5.88,1.63c2.08,-1.3 4.61,-2.14 7.56,-2.52c2.96,-0.37 6.19,-0.54 9.95,-0.54c0.48,0 1.78,-0.02 5.16,-0.16c0.07,-0.01 0.13,-0.01 0.2,-0.01c2.5,-0.06 4.4,-0.09 5.81,-0.09c0.47,0 0.93,0.03 1.39,0.09c2.58,0.32 6.28,1.66 9.3,6.14c1.26,1.86 2.98,5.53 1.68,10.61c-1.04,4.54 -3.67,7.03 -5.43,8.23c-2.37,1.65 -5.24,2.46 -8.76,2.46c-0.6,0 -1.22,-0.03 -1.87,-0.07c-2.17,3.17 -4.72,6.95 -7.62,11.33c1.56,1.95 3.32,4.18 5.3,6.69h0.6l4.09,-0.17c0.27,-0.01 0.54,-0.01 0.8,0c8.27,0.27 11.62,4.88 12.88,7.61c0.05,0.09 0.09,0.19 0.13,0.29c0.49,1.13 0.84,2.28 1.05,3.42c1.05,5.42 -1.18,10.71 -5.87,13.87z" fill="#00cccc"/><path d="M270.64,199.674c0.233,1.115 -0.177,2.023 -1.232,2.727c-0.763,0.528 -1.671,0.822 -2.727,0.88c-1.994,-0.117 -5.014,-0.088 -9.06,0.088c-1.525,0.235 -3.93,0.352 -7.213,0.352c-0.234,0 -0.968,0.104 -2.199,0.309c-1.231,0.206 -2.198,0.308 -2.902,0.308c-2.639,0 -3.753,-1.261 -3.343,-3.782c0.88,-1.056 2.023,-1.686 3.431,-1.892c1.407,-0.204 2.785,-0.396 4.135,-0.571c-1.643,-2.228 -5.073,-6.45 -10.292,-12.666c-1.643,1.759 -3.549,4.397 -5.717,7.916c-1.467,2.405 -2.934,4.78 -4.398,7.125c0.704,0.646 2.257,1.174 4.662,1.583c1.816,0.294 2.902,1.262 3.254,2.902c-0.059,-0.176 -0.234,0.089 -0.527,0.792c0,0.235 -0.03,0.559 -0.088,0.968c-0.294,0.998 -0.792,1.525 -1.495,1.583c-2.111,0.118 -3.87,-0.146 -5.278,-0.791c-0.879,-0.469 -2.609,-0.968 -5.189,-1.495c-1.407,-0.234 -3.489,-0.586 -6.245,-1.057c-1.407,-0.233 -2.845,-0.468 -4.31,-0.703c-1.702,-0.469 -2.552,-1.289 -2.552,-2.463c0,-0.233 0.059,-0.498 0.177,-0.792c0.585,-0.703 1.055,-1.113 1.407,-1.231c2.169,-0.996 4.778,-1.172 7.828,-0.527c0.938,0.176 1.729,0.264 2.375,0.264c0.527,-0.527 1.319,-1.759 2.375,-3.694c1.349,-2.521 2.14,-3.958 2.375,-4.311c0.938,-1.407 3.459,-4.837 7.564,-10.291c-1.877,-2.345 -4.428,-5.688 -7.652,-10.027c-1.174,-1.641 -3.05,-4.192 -5.63,-7.652c-1.231,-1.584 -1.965,-2.375 -2.199,-2.375c-0.176,0 -0.967,0 -2.374,0c-1.231,0.059 -2.142,0.059 -2.728,0c-2.287,-0.286 -3.548,-1.057 -3.782,-2.316c-0.294,-1.371 0.102,-2.37 1.188,-3c1.085,-0.63 2.36,-1 3.826,-1.116c1.231,0 2.463,-0.027 3.694,-0.085c1.584,-0.058 3.987,-0.172 7.213,-0.344c0.762,-0.116 1.554,-0.264 2.375,-0.439c1.407,-0.176 2.521,-0.233 3.343,-0.176c1.465,0.059 2.199,0.851 2.199,2.375c0,0.997 -0.295,1.847 -0.88,2.551c-0.646,0.234 -1.481,0.455 -2.507,0.659c-1.026,0.206 -2.361,0.427 -4.002,0.66c-0.176,0.411 0.264,1.262 1.319,2.551c1.523,1.935 2.345,2.99 2.463,3.166c0.996,1.584 2.287,3.314 3.87,5.19c2.111,2.639 3.371,4.222 3.782,4.75c2.169,-2.463 4.398,-5.395 6.685,-8.797c1.7,-2.639 3.4,-5.277 5.102,-7.916c0.176,-0.233 0.265,-0.586 0.265,-1.056c-0.411,-0.058 -0.851,-0.088 -1.319,-0.088c-0.353,0 -0.836,0.044 -1.451,0.132c-0.616,0.088 -1.042,0.132 -1.276,0.132c-1.055,0 -2.053,-0.645 -2.99,-1.935c-0.352,-1.817 1.056,-2.932 4.222,-3.343c2.404,-0.293 5.248,-0.439 8.532,-0.439c0.997,0 2.873,-0.059 5.63,-0.177c2.342,-0.06 4.189,-0.09 5.538,-0.09c0.469,0.06 0.997,0.528 1.584,1.407c0.292,0.411 0.321,1.027 0.088,1.848c-0.177,0.88 -0.499,1.467 -0.97,1.759c-0.646,0.471 -1.995,0.616 -4.049,0.44c-1.35,-0.117 -3.404,-0.088 -6.162,0.088c-3.64,5.165 -8.774,12.794 -15.405,22.888c2.585,3.162 6.435,7.993 11.549,14.491c0.292,0.47 0.585,0.94 0.879,1.41c0.469,0.705 0.938,1.087 1.407,1.145c1.29,0 3.252,0 5.891,0c1.408,-0.058 2.844,-0.116 4.311,-0.176c1.817,0.06 2.901,0.471 3.253,1.231c0.175,0.411 0.292,0.792 0.352,1.143z" fill="#ffffff"/></g></g></svg>