<svg version="1.1" xmlns="http://www.w3.org/2000/svg" xmlns:xlink="http://www.w3.org/1999/xlink" width="65.15075" height="26.39149" viewBox="0,0,65.15075,26.39149"><defs><linearGradient x1="230.82875" y1="180.61249" x2="257.46456" y2="180.61249" gradientUnits="userSpaceOnUse" id="color-1"><stop offset="0" stop-color="#00a6b2"/><stop offset="1" stop-color="#00cce3"/></linearGradient><linearGradient x1="256.89788" y1="180.59583" x2="258.63955" y2="180.59583" gradientUnits="userSpaceOnUse" id="color-2"><stop offset="0" stop-color="#000000"/><stop offset="1" stop-color="#1e1e1e"/></linearGradient><linearGradient x1="222.56159" y1="179.95821" x2="246.70241" y2="179.95821" gradientUnits="userSpaceOnUse" id="color-3"><stop offset="0" stop-color="#00a6b2"/><stop offset="1" stop-color="#00cce3"/></linearGradient><linearGradient x1="257.24379" y1="180.76585" x2="282.0624" y2="180.76585" gradientUnits="userSpaceOnUse" id="color-4"><stop offset="0" stop-color="#98c867"/><stop offset="1" stop-color="#989767"/></linearGradient><linearGradient x1="257.49928" y1="180.99535" x2="266.88121" y2="180.99535" gradientUnits="userSpaceOnUse" id="color-5"><stop offset="0" stop-color="#98e967"/><stop offset="1" stop-color="#98d667"/></linearGradient></defs><g transform="translate(-221.8116,-166.76246)"><g data-paper-data="{&quot;isPaintingLayer&quot;:true}" fill-rule="nonzero" stroke="#005467" stroke-width="1.5" stroke-linecap="butt" stroke-linejoin="miter" stroke-miterlimit="10" stroke-dasharray="" stroke-dashoffset="0" style="mix-blend-mode: normal"><path d="M236.02195,185.20252c0,0 -4.89123,0.11922 -5.17346,-4.40958c-0.37054,-5.94562 4.59783,-4.89547 4.59783,-4.89547l22.01824,-0.5v10.43005z" fill="url(#color-1)"/><path d="M258.63955,180.59583c0,2.93401 -0.38988,5.3125 -0.87083,5.3125c-0.48095,0 -0.87083,-2.37849 -0.87083,-5.3125c0,-2.93401 0.38988,-5.3125 0.87083,-5.3125c0.48095,0 0.87083,2.37849 0.87083,5.3125z" fill="url(#color-2)"/><path d="M224.03893,190.80054c-1.76796,-1.8398 -2.16178,-19.59175 0,-21.60207c2.28678,-2.63531 19.67629,-1.82443 21.24794,0c1.96507,2.28112 1.80807,20.69094 0,21.60207c-1.80807,1.78612 -18.8811,2.46302 -21.24794,0z" fill="url(#color-3)"/><g><path d="M257.92158,185.94116c0,0 -0.67779,-4.03038 -0.67779,-5.8531c0,-1.59777 0.67779,-4.49752 0.67779,-4.49752l22.39148,-3.80538l-9.7416,4.88136l9.33259,3.50341l-9.22118,4.08557l11.37953,5.49104z" fill="url(#color-4)"/><path d="M257.68932,183.01883c0,0 -0.19004,-1.48788 -0.19004,-2.25299c0,-0.68882 0,-1.96342 0,-1.96342l8.7847,-1.61245l-3.32579,2.06837l3.18615,1.4845l-3.14811,1.73117l3.88498,2.32671z" fill="url(#color-5)"/></g></g></g></svg>