<svg version="1.1" xmlns="http://www.w3.org/2000/svg" xmlns:xlink="http://www.w3.org/1999/xlink" width="88.66062" height="52.92828" viewBox="0,0,88.66062,52.92828"><defs><linearGradient x1="188.44503" y1="172.48815" x2="223.98399" y2="172.48815" gradientUnits="userSpaceOnUse" id="color-1"><stop offset="0" stop-color="#ff514a"/><stop offset="1" stop-color="#ff2121"/></linearGradient><linearGradient x1="189.65385" y1="192.22529" x2="225.11664" y2="192.22529" gradientUnits="userSpaceOnUse" id="color-2"><stop offset="0" stop-color="#ff514a"/><stop offset="1" stop-color="#ff2121"/></linearGradient><linearGradient x1="178.86969" y1="180.12719" x2="226.94916" y2="180.12719" gradientUnits="userSpaceOnUse" id="color-3"><stop offset="0" stop-color="#ff514a"/><stop offset="1" stop-color="#ff2121"/></linearGradient><linearGradient x1="216.90286" y1="181.5452" x2="262.64268" y2="181.5452" gradientUnits="userSpaceOnUse" id="color-4"><stop offset="0" stop-color="#ff514a"/><stop offset="1" stop-color="#ff2121"/></linearGradient><linearGradient x1="250.97805" y1="180.32784" x2="265.53031" y2="180.32784" gradientUnits="userSpaceOnUse" id="color-5"><stop offset="0" stop-color="#b4b4b4"/><stop offset="1" stop-color="#ffffff"/></linearGradient><linearGradient x1="241.35736" y1="197.41431" x2="253.36298" y2="197.41431" gradientUnits="userSpaceOnUse" id="color-6"><stop offset="0" stop-color="#b4b4b4"/><stop offset="1" stop-color="#ffffff"/></linearGradient><linearGradient x1="241.49883" y1="162.18569" x2="253.50447" y2="162.18569" gradientUnits="userSpaceOnUse" id="color-7"><stop offset="0" stop-color="#b4b4b4"/><stop offset="1" stop-color="#ffffff"/></linearGradient><linearGradient x1="231.43708" y1="166.00567" x2="236.95125" y2="166.00567" gradientUnits="userSpaceOnUse" id="color-8"><stop offset="0" stop-color="#b4b4b4"/><stop offset="1" stop-color="#ffffff"/></linearGradient><linearGradient x1="231.72004" y1="196.42395" x2="237.23421" y2="196.42395" gradientUnits="userSpaceOnUse" id="color-9"><stop offset="0" stop-color="#b4b4b4"/><stop offset="1" stop-color="#ffffff"/></linearGradient><linearGradient x1="233.85891" y1="180.10484" x2="245.86453" y2="180.10484" gradientUnits="userSpaceOnUse" id="color-10"><stop offset="0" stop-color="#b4b4b4"/><stop offset="1" stop-color="#ffffff"/></linearGradient></defs><g transform="translate(-177.86969,-153.33586)"><g data-paper-data="{&quot;isPaintingLayer&quot;:true}" fill-rule="nonzero" stroke="#000000" stroke-width="2" stroke-linecap="butt" stroke-linejoin="miter" stroke-miterlimit="10" stroke-dasharray="" stroke-dashoffset="0" style="mix-blend-mode: normal"><path d="M200.37698,169.66167c3.17594,-0.03068 8.45554,-5.0314 13.47096,-6.03506c5.2312,-1.04685 10.13605,1.90223 10.13605,1.90223l-2.98844,16.04564c0,0 -3.32415,-4.80277 -8.32195,-6.06102c-4.54039,-1.14309 -10.64145,1.32302 -13.47293,-0.0429c-4.48025,-2.16128 -10.75564,-9.59848 -10.75564,-9.59848c0,0 7.01656,3.83703 11.93194,3.78956z" data-paper-data="{&quot;index&quot;:null}" fill="url(#color-1)"/><path d="M189.65385,201.08799c0,0 5.69382,-7.8913 9.99743,-10.38584c2.71987,-1.57654 8.99022,0.42022 13.43096,-1.06361c4.88812,-1.6333 7.83879,-6.67415 7.83879,-6.67415l4.19561,15.7731c0,0 -4.6673,3.31224 -9.96278,2.66478c-5.07706,-0.62075 -10.72039,-5.20709 -13.88952,-4.99702c-4.90484,0.3251 -11.61049,4.68277 -11.61049,4.68277z" fill="url(#color-2)"/><path d="M178.86969,182.23974c0,0 20.22642,-2.37126 28.80109,-5.08393c7.21642,-2.28298 19.27838,-10.12649 19.27838,-10.12649v26.19573c0,0 -10.89956,-4.42296 -17.76844,-5.99235c-8.71431,-1.99107 -30.31103,-4.99295 -30.31103,-4.99295z" fill="url(#color-3)"/><path d="M262.64268,181.5452c0,12.44384 -10.2392,22.53163 -22.86991,22.53163c-12.63075,0 -22.86991,-10.08773 -22.86991,-22.53163c0,-12.44384 10.2392,-22.53163 22.86991,-22.53163c12.63075,0 22.86991,10.08773 22.86991,22.53163z" fill="url(#color-4)"/><g><path d="M265.53031,180.32784c0,5.25497 -3.25763,9.51494 -7.27615,9.51494c-4.01849,0 -7.27615,-4.25998 -7.27615,-9.51494c0,-5.25497 3.25763,-9.51494 7.27615,-9.51494c4.01849,0 7.27615,4.25998 7.27615,9.51494z" fill="url(#color-5)"/><path d="M263.63291,180.64408c0,1.56875 -0.70163,2.8405 -1.56717,2.8405c-0.86553,0 -1.56717,-1.27173 -1.56717,-2.8405c0,-1.56875 0.70163,-2.8405 1.56717,-2.8405c0.86553,0 1.56717,1.27173 1.56717,2.8405z" fill="#000000"/></g><g><path d="M253.36298,197.41431c0,4.33534 -2.68756,7.84983 -6.00282,7.84983c-3.31524,0 -6.00282,-3.5145 -6.00282,-7.84983c0,-4.33534 2.68756,-7.84983 6.00282,-7.84983c3.31524,0 6.00282,3.5145 6.00282,7.84983z" fill="url(#color-6)"/><path d="M251.79764,197.67522c0,1.29421 -0.57884,2.34339 -1.29292,2.34339c-0.71406,0 -1.29292,-1.04918 -1.29292,-2.34339c0,-1.29421 0.57884,-2.3434 1.29292,-2.3434c0.71406,0 1.29292,1.04918 1.29292,2.3434z" fill="#000000"/></g><g><path d="M253.50447,162.18569c0,4.33534 -2.68756,7.84983 -6.00282,7.84983c-3.31524,0 -6.00282,-3.5145 -6.00282,-7.84983c0,-4.33534 2.68754,-7.84983 6.00282,-7.84983c3.31524,0 6.00282,3.5145 6.00282,7.84983z" fill="url(#color-7)"/><path d="M251.93912,162.44659c0,1.29421 -0.57884,2.34339 -1.29292,2.34339c-0.71406,0 -1.29292,-1.04918 -1.29292,-2.34339c0,-1.29421 0.57884,-2.34339 1.29292,-2.34339c0.71406,0 1.29292,1.04918 1.29292,2.34339z" fill="#000000"/></g><g><path d="M236.95125,166.00567c0,1.99123 -1.23438,3.60542 -2.75709,3.60542c-1.52269,0 -2.75709,-1.61421 -2.75709,-3.60542c0,-1.99123 1.23438,-3.60542 2.75709,-3.60542c1.52269,0 2.75709,1.61421 2.75709,3.60542z" fill="url(#color-8)"/><path d="M236.23228,166.12548c0,0.59444 -0.26587,1.07632 -0.59383,1.07632c-0.32798,0 -0.59383,-0.4819 -0.59383,-1.07632c0,-0.59444 0.26587,-1.07634 0.59383,-1.07634c0.32798,0 0.59383,0.4819 0.59383,1.07634z" fill="#000000"/></g><g><path d="M237.23421,196.42395c0,1.99122 -1.23438,3.6054 -2.75708,3.6054c-1.52269,0 -2.75709,-1.61418 -2.75709,-3.6054c0,-1.99122 1.23438,-3.60542 2.75709,-3.60542c1.52269,0 2.75708,1.61421 2.75708,3.60542z" fill="url(#color-9)"/><path d="M236.51525,196.54378c0,0.59444 -0.26587,1.07632 -0.59383,1.07632c-0.32798,0 -0.59383,-0.48188 -0.59383,-1.07632c0,-0.59444 0.26587,-1.07634 0.59383,-1.07634c0.32798,0 0.59383,0.4819 0.59383,1.07634z" fill="#000000"/></g><g><path d="M245.86453,180.10484c0,4.33534 -2.68754,7.84983 -6.00282,7.84983c-3.31524,0 -6.00282,-3.5145 -6.00282,-7.84983c0,-4.33534 2.68756,-7.84983 6.00282,-7.84983c3.31524,0 6.00282,3.5145 6.00282,7.84983z" fill="url(#color-10)"/><path d="M244.29918,180.36572c0,1.29421 -0.57884,2.34339 -1.29292,2.34339c-0.71406,0 -1.29292,-1.04918 -1.29292,-2.34339c0,-1.29421 0.57884,-2.34339 1.29292,-2.34339c0.71406,0 1.29292,1.04918 1.29292,2.34339z" fill="#000000"/></g></g></g></svg>