<svg version="1.1" xmlns="http://www.w3.org/2000/svg" xmlns:xlink="http://www.w3.org/1999/xlink" width="35.27879" height="16.1895" viewBox="0,0,35.27879,16.1895"><defs><linearGradient x1="220.17779" y1="180.04445" x2="237.84446" y2="180.04445" gradientUnits="userSpaceOnUse" id="color-1"><stop offset="0" stop-color="#ff514a"/><stop offset="1" stop-color="#ff2121"/></linearGradient><radialGradient cx="240.00001" cy="180" r="7.20127" gradientUnits="userSpaceOnUse" id="color-2"><stop offset="0" stop-color="#ff4a4a"/><stop offset="1" stop-color="#ff2121"/></radialGradient><linearGradient x1="241.80001" y1="179.62857" x2="249.22858" y2="179.62857" gradientUnits="userSpaceOnUse" id="color-3"><stop offset="0" stop-color="#b4b4b4"/><stop offset="1" stop-color="#ffffff"/></linearGradient><linearGradient x1="246.46001" y1="179.79" x2="248.46001" y2="179.79" gradientUnits="userSpaceOnUse" id="color-4"><stop offset="0" stop-color="#b4b4b4"/><stop offset="1" stop-color="#ffffff"/></linearGradient></defs><g transform="translate(-214.94978,-171.90525)"><g data-paper-data="{&quot;isPaintingLayer&quot;:true}" fill-rule="nonzero" stroke="#000000" stroke-width="2" stroke-linecap="butt" stroke-linejoin="miter" stroke-miterlimit="10" stroke-dasharray="" stroke-dashoffset="0" style="mix-blend-mode: normal"><path d="M220.17779,180.6l17.66667,-4v6.88889z" fill="url(#color-1)"/><path d="M247.20128,180c0,3.91832 -3.22412,7.09475 -7.20127,7.09475c-3.97716,0 -7.20127,-3.17643 -7.20127,-7.09475c0,-3.91832 3.22412,-7.09475 7.20127,-7.09475c3.97716,0 7.20127,3.17643 7.20127,7.09475z" fill="url(#color-2)"/><path d="M249.22858,179.62857c0,2.68253 -1.66294,4.85714 -3.71429,4.85714c-2.05134,0 -3.71429,-2.17462 -3.71429,-4.85714c0,-2.68253 1.66294,-4.85714 3.71429,-4.85714c2.05134,0 3.71429,2.17462 3.71429,4.85714z" fill="url(#color-3)"/><path d="M248.26001,179.79c0,0.80081 -0.35817,1.45 -0.8,1.45c-0.44183,0 -0.8,-0.64919 -0.8,-1.45c0,-0.80081 0.35817,-1.45 0.8,-1.45c0.44183,0 0.8,0.64919 0.8,1.45z" fill="url(#color-4)"/></g></g></svg>