<svg version="1.1" xmlns="http://www.w3.org/2000/svg" xmlns:xlink="http://www.w3.org/1999/xlink" width="103.93333" height="84.56478" viewBox="0,0,103.93333,84.56478"><defs><radialGradient cx="240.00009" cy="180" r="51.8" gradientUnits="userSpaceOnUse" id="color-1"><stop offset="0" stop-color="#00a3ff" stop-opacity="0"/><stop offset="1" stop-color="#00a3ff" stop-opacity="0.66935"/></radialGradient><radialGradient cx="240.00009" cy="180" r="51.8" gradientUnits="userSpaceOnUse" id="color-2"><stop offset="0" stop-color="#00a3ff" stop-opacity="0"/><stop offset="1" stop-color="#00a3ff" stop-opacity="0.66935"/></radialGradient></defs><g transform="translate(-188.03339,-148.23523)"><g data-paper-data="{&quot;isPaintingLayer&quot;:true}" fill-rule="nonzero" stroke="#000000" stroke-width="2" stroke-linejoin="miter" stroke-miterlimit="10" stroke-dasharray="" stroke-dashoffset="0" style="mix-blend-mode: normal"><path d="M189.0334,180c0,-12.54981 1.81971,-20.48582 9.1256,-29.45036c0,0 1.89184,10.42037 2.60866,11.15912c1.50482,1.55085 8.14437,0.46603 8.14437,0.46603l5.31656,13.31093l2.85714,0.57143c12.64775,-0.00377 24.73162,2.48329 37.19936,-0.63114l1.77193,-0.90626c0,0 1.74831,-0.97129 0.77703,-2.7196c-0.37184,-0.6693 -3.19834,-7.91952 -4.65562,-11.66662c2.6342,-0.44911 18.68826,5.52362 18.68826,5.52362c0,0 9.88043,-13.22717 11.52723,-14.42021c5.41511,8.22809 8.57281,18.12079 8.57281,28.76307c0,28.60835 -22.81855,51.8 -50.96666,51.8c-28.14811,0 -50.96667,-23.19165 -50.96667,-51.8z" fill="url(#color-1)" stroke-linecap="butt"/><path d="" fill="url(#color-2)" stroke-linecap="butt"/><path d="M256.46969,171.29688l-3.93632,-10.49688l18.66667,5l11.66667,-14.33333" fill="none" stroke-linecap="round"/><path d="M213.53336,175.13333l-4.66666,-12l-8.66667,-1l-2.33333,-11.66667" fill="none" stroke-linecap="round"/><path d="M202.86668,174.79999l-8,-4.33333l-2.66667,-10.33333" fill="none" stroke-linecap="round"/><path d="M287.53333,164.8l-9.33333,10.66667l-12,0.33333" fill="none" stroke-linecap="round"/><path d="M263.53334,164.13333l-0.66667,6.66667l-4.33333,-2.66667" fill="none" stroke-linecap="round"/><path d="M277.53334,161.13333l6,3" fill="none" stroke-linecap="round"/><path d="M202.2,162.46666l3.66667,7.66667" fill="none" stroke-linecap="round"/><path d="M196.86667,157.8h2.33333" fill="none" stroke-linecap="round"/></g></g></svg>