<svg version="1.1" xmlns="http://www.w3.org/2000/svg" xmlns:xlink="http://www.w3.org/1999/xlink" width="35.27879" height="16.1895" viewBox="0,0,35.27879,16.1895"><defs><linearGradient x1="220.17778" y1="180.04445" x2="237.84445" y2="180.04445" gradientUnits="userSpaceOnUse" id="color-1"><stop offset="0" stop-color="#e2ff00"/><stop offset="1" stop-color="#ffc900"/></linearGradient><radialGradient cx="240" cy="180" r="7.20127" gradientUnits="userSpaceOnUse" id="color-2"><stop offset="0" stop-color="#e2ff00"/><stop offset="1" stop-color="#ffc900"/></radialGradient><linearGradient x1="241.8" y1="179.62857" x2="249.22857" y2="179.62857" gradientUnits="userSpaceOnUse" id="color-3"><stop offset="0" stop-color="#b4b4b4"/><stop offset="1" stop-color="#ffffff"/></linearGradient><linearGradient x1="246.46" y1="179.79" x2="248.46" y2="179.79" gradientUnits="userSpaceOnUse" id="color-4"><stop offset="0" stop-color="#b4b4b4"/><stop offset="1" stop-color="#ffffff"/></linearGradient></defs><g transform="translate(-214.94978,-171.90525)"><g data-paper-data="{&quot;isPaintingLayer&quot;:true}" fill-rule="nonzero" stroke="#000000" stroke-width="2" stroke-linecap="butt" stroke-linejoin="miter" stroke-miterlimit="10" stroke-dasharray="" stroke-dashoffset="0" style="mix-blend-mode: normal"><path d="M220.17778,180.6l17.66666,-4v6.88889z" fill="url(#color-1)"/><path d="M247.20127,180c0,3.91832 -3.22412,7.09475 -7.20127,7.09475c-3.97716,0 -7.20127,-3.17643 -7.20127,-7.09475c0,-3.91832 3.22412,-7.09475 7.20127,-7.09475c3.97716,0 7.20127,3.17643 7.20127,7.09475z" fill="url(#color-2)"/><path d="M249.22857,179.62857c0,2.68252 -1.66294,4.85715 -3.71428,4.85715c-2.05134,0 -3.71428,-2.17462 -3.71428,-4.85715c0,-2.68252 1.66294,-4.85714 3.71428,-4.85714c2.05134,0 3.71428,2.17461 3.71428,4.85714z" fill="url(#color-3)"/><path d="M248.26,179.79c0,0.80082 -0.35817,1.45 -0.8,1.45c-0.44183,0 -0.8,-0.64919 -0.8,-1.45c0,-0.80081 0.35817,-1.45 0.8,-1.45c0.44183,0 0.8,0.64918 0.8,1.45z" fill="url(#color-4)"/></g></g></svg>