<svg version="1.1" xmlns="http://www.w3.org/2000/svg" xmlns:xlink="http://www.w3.org/1999/xlink" width="84.18602" height="48.52392" viewBox="0,0,84.18602,48.52392"><defs><linearGradient x1="193.56422" y1="172.72048" x2="226.02972" y2="172.72048" gradientUnits="userSpaceOnUse" id="color-1"><stop offset="0" stop-color="#ff8d00"/><stop offset="1" stop-color="#ffaf00"/></linearGradient><linearGradient x1="194.66851" y1="190.75072" x2="227.06441" y2="190.75072" gradientUnits="userSpaceOnUse" id="color-2"><stop offset="0" stop-color="#ff8d00"/><stop offset="1" stop-color="#ffaf00"/></linearGradient><linearGradient x1="184.81698" y1="179.69889" x2="228.73844" y2="179.69889" gradientUnits="userSpaceOnUse" id="color-3"><stop offset="0" stop-color="#ff8d00"/><stop offset="1" stop-color="#ffaf00"/></linearGradient><linearGradient x1="219.56097" y1="180.99427" x2="261.34513" y2="180.99427" gradientUnits="userSpaceOnUse" id="color-4"><stop offset="0" stop-color="#ff8d00"/><stop offset="1" stop-color="#ffaf00"/></linearGradient><linearGradient x1="250.68928" y1="179.8822" x2="263.98302" y2="179.8822" gradientUnits="userSpaceOnUse" id="color-5"><stop offset="0" stop-color="#b4b4b4"/><stop offset="1" stop-color="#ffffff"/></linearGradient><linearGradient x1="241.90061" y1="195.49099" x2="252.86794" y2="195.49099" gradientUnits="userSpaceOnUse" id="color-6"><stop offset="0" stop-color="#b4b4b4"/><stop offset="1" stop-color="#ffffff"/></linearGradient><linearGradient x1="242.02983" y1="163.30901" x2="252.9972" y2="163.30901" gradientUnits="userSpaceOnUse" id="color-7"><stop offset="0" stop-color="#b4b4b4"/><stop offset="1" stop-color="#ffffff"/></linearGradient><linearGradient x1="235.05063" y1="179.67847" x2="246.01798" y2="179.67847" gradientUnits="userSpaceOnUse" id="color-8"><stop offset="0" stop-color="#b4b4b4"/><stop offset="1" stop-color="#ffffff"/></linearGradient><linearGradient x1="232.83824" y1="166.79864" x2="237.87553" y2="166.79864" gradientUnits="userSpaceOnUse" id="color-9"><stop offset="0" stop-color="#b4b4b4"/><stop offset="1" stop-color="#ffffff"/></linearGradient><linearGradient x1="233.09673" y1="194.58627" x2="238.13402" y2="194.58627" gradientUnits="userSpaceOnUse" id="color-10"><stop offset="0" stop-color="#b4b4b4"/><stop offset="1" stop-color="#ffffff"/></linearGradient></defs><g transform="translate(-180.797,-155.13804)"><g data-paper-data="{&quot;isPaintingLayer&quot;:true}" fill-rule="nonzero" stroke="#000000" stroke-linecap="butt" stroke-linejoin="miter" stroke-miterlimit="10" stroke-dasharray="" stroke-dashoffset="0" style="mix-blend-mode: normal"><path d="M204.46427,170.13846c2.90128,-0.02802 7.72429,-4.59628 12.30596,-5.51313c4.77878,-0.95631 9.25946,1.73773 9.25946,1.73773l-2.72999,14.65798c0,0 -3.03667,-4.38741 -7.60224,-5.53685c-4.14772,-1.04423 -9.72116,1.2086 -12.30777,-0.03919c-4.0928,-1.97437 -9.82547,-8.76838 -9.82547,-8.76838c0,0 6.40976,3.5052 10.90005,3.46183z" data-paper-data="{&quot;index&quot;:null}" fill="url(#color-1)" stroke-width="2"/><path d="M194.66851,198.84696c0,0 5.20142,-7.20885 9.13283,-9.48765c2.48464,-1.44019 8.21274,0.38389 12.26943,-0.97163c4.46539,-1.49206 7.16088,-6.09696 7.16088,-6.09696l3.83277,14.40901c0,0 -4.26364,3.02579 -9.10117,2.43433c-4.63798,-0.56706 -9.79327,-4.75677 -12.68833,-4.56486c-4.48067,0.29697 -10.60639,4.2778 -10.60639,4.2778z" fill="url(#color-2)" stroke-width="2"/><path d="M184.81698,181.62875c0,0 18.47721,-2.16619 26.31033,-4.64426c6.59233,-2.08555 17.61116,-9.25074 17.61116,-9.25074v23.93027c0,0 -9.95695,-4.04047 -16.23179,-5.47413c-7.96067,-1.81887 -27.68967,-4.56116 -27.68967,-4.56116z" fill="url(#color-3)" stroke-width="2"/><path d="M261.34513,180.99427c0,11.36768 -9.35369,20.58305 -20.89208,20.58305c-11.53842,0 -20.89208,-9.21533 -20.89208,-20.58305c0,-11.36768 9.35369,-20.58305 20.89208,-20.58305c11.53842,0 20.89208,9.21533 20.89208,20.58305z" fill="url(#color-4)" stroke-width="2"/><path d="M248.53446,186.75997v-13.34716l9.36033,-3.64013l0.8667,19.2407z" fill="#4a4a4a" stroke-width="1.5"/><g stroke-width="2"><path d="M263.98302,179.8822c0,4.80051 -2.9759,8.69207 -6.64689,8.69207c-3.67096,0 -6.64689,-3.89158 -6.64689,-8.69207c0,-4.80051 2.9759,-8.69207 6.64689,-8.69207c3.67096,0 6.64689,3.89158 6.64689,8.69207z" fill="url(#color-5)"/><path d="M262.24973,180.17109c0,1.4331 -0.64095,2.59485 -1.43163,2.59485c-0.79067,0 -1.43163,-1.16175 -1.43163,-2.59485c0,-1.4331 0.64095,-2.59485 1.43163,-2.59485c0.79067,0 1.43163,1.16175 1.43163,2.59485z" fill="#000000"/></g><path d="M246.87438,187.44296l9.51067,5.84762c0,0 -3.34338,3.7823 -5.69731,5.06877c-2.59213,1.41663 -9.38325,2.73153 -9.38325,2.73153l0.8667,-11.61377z" data-paper-data="{&quot;index&quot;:null}" fill="#4a4a4a" stroke-width="1.5"/><path d="M241.47783,170.45567l-1.04004,-10.40038c0,0 7.48446,1.66158 10.0766,3.07821c2.35393,1.28646 4.8306,5.06877 4.8306,5.06877l-9.33731,5.15426z" data-paper-data="{&quot;index&quot;:null}" fill="#4a4a4a" stroke-width="1.5"/><g stroke-width="2"><path d="M252.86794,195.49099c0,3.96041 -2.45514,7.17097 -5.48367,7.17097c-3.02853,0 -5.48367,-3.21056 -5.48367,-7.17097c0,-3.96041 2.45514,-7.17097 5.48367,-7.17097c3.02853,0 5.48367,3.21056 5.48367,7.17097z" fill="url(#color-6)"/><path d="M251.438,195.72934c0,1.18227 -0.52878,2.14072 -1.18111,2.14072c-0.65231,0 -1.18111,-0.95846 -1.18111,-2.14072c0,-1.18227 0.52878,-2.14074 1.18111,-2.14074c0.65231,0 1.18111,0.95846 1.18111,2.14074z" fill="#000000"/></g><g stroke-width="2"><path d="M252.9972,163.30901c0,3.96041 -2.45514,7.17097 -5.48367,7.17097c-3.02853,0 -5.48367,-3.21056 -5.48367,-7.17097c0,-3.96041 2.45511,-7.17097 5.48367,-7.17097c3.02853,0 5.48367,3.21056 5.48367,7.17097z" fill="url(#color-7)"/><path d="M251.56723,163.54735c0,1.18227 -0.52878,2.14072 -1.18111,2.14072c-0.65231,0 -1.18111,-0.95846 -1.18111,-2.14072c0,-1.18227 0.52878,-2.14072 1.18111,-2.14072c0.65231,0 1.18111,0.95846 1.18111,2.14072z" fill="#000000"/></g><path d="M232.46416,186.92294l-0.17334,-13.31202l13.86718,-1.38672v15.21875z" fill="#4a4a4a" stroke-width="1.5"/><path d="M234.15874,161.49159c1.40188,-0.43981 4.54567,-1.08962 4.54567,-1.08962v10.57373l-7.28027,0.52003l-1.90674,-8.14696c0,0 3.10822,-1.37619 4.64135,-1.85718z" data-paper-data="{&quot;index&quot;:null}" fill="#4a4a4a" stroke-width="1.5"/><g stroke-width="2"><path d="M246.01798,179.67847c0,3.96041 -2.45511,7.17097 -5.48367,7.17097c-3.02853,0 -5.48367,-3.21056 -5.48367,-7.17097c0,-3.96041 2.45514,-7.17097 5.48367,-7.17097c3.02853,0 5.48367,3.21056 5.48367,7.17097z" fill="url(#color-8)"/><path d="M244.588,179.91679c0,1.18227 -0.52878,2.14072 -1.18111,2.14072c-0.65231,0 -1.18111,-0.95846 -1.18111,-2.14072c0,-1.18227 0.52878,-2.14072 1.18111,-2.14072c0.65231,0 1.18111,0.95846 1.18111,2.14072z" fill="#000000"/></g><g stroke-width="2"><path d="M237.87553,166.79864c0,1.81903 -1.12762,3.29361 -2.51865,3.29361c-1.391,0 -2.51865,-1.4746 -2.51865,-3.29361c0,-1.81903 1.12762,-3.29361 2.51865,-3.29361c1.391,0 2.51865,1.4746 2.51865,3.29361z" fill="url(#color-9)"/><path d="M237.21876,166.90809c0,0.54303 -0.24289,0.98324 -0.54247,0.98324c-0.29962,0 -0.54247,-0.44023 -0.54247,-0.98324c0,-0.54303 0.24289,-0.98327 0.54247,-0.98327c0.29962,0 0.54247,0.44023 0.54247,0.98327z" fill="#000000"/></g><path d="M230.73077,198.88338l1.56007,-9.187h7.28027l0.34669,12.13377c0,0 -3.14378,-0.6498 -4.54567,-1.08962c-1.53314,-0.48099 -4.64135,-1.85718 -4.64135,-1.85718z" fill="#4a4a4a" stroke-width="1.5"/><g stroke-width="2"><path d="M238.13402,194.58627c0,1.81902 -1.12762,3.2936 -2.51864,3.2936c-1.391,0 -2.51865,-1.47458 -2.51865,-3.2936c0,-1.81902 1.12762,-3.29361 2.51865,-3.29361c1.391,0 2.51864,1.4746 2.51864,3.29361z" fill="url(#color-10)"/><path d="M237.47723,194.69575c0,0.54303 -0.24289,0.98324 -0.54247,0.98324c-0.29962,0 -0.54247,-0.44019 -0.54247,-0.98324c0,-0.54303 0.24289,-0.98327 0.54247,-0.98327c0.29962,0 0.54247,0.44023 0.54247,0.98327z" fill="#000000"/></g><path d="M225.53058,166.12218l-3.12011,8.49365l-6.24022,-0.69335l1.38671,-9.01367z" data-paper-data="{&quot;index&quot;:null}" fill="#4a4a4a" stroke-width="1.5"/><path d="M214.43684,186.05624v-9.70703l7.45361,-3.46679l-0.17334,13.86718z" fill="#4a4a4a" stroke-width="1.5"/><path d="M226.22394,194.72323c0,0 -6.12403,-5.9864 -6.6079,-14.21322c-0.36983,-6.28769 4.35449,-12.30776 4.35449,-12.30776l4.33349,5.89355l0.8667,11.26707z" fill="#4a4a4a" stroke-width="1.5"/><path d="M217.7303,197.32332l-1.38672,-7.80028l6.24023,-0.69336l2.08008,8.3203z" fill="#4a4a4a" stroke-width="1.5"/></g></g></svg>