<svg version="1.1" xmlns="http://www.w3.org/2000/svg" xmlns:xlink="http://www.w3.org/1999/xlink" width="58.57629" height="31.79283" viewBox="0,0,58.57629,31.79283"><defs><linearGradient x1="267.94746" y1="180.9021" x2="276.74063" y2="180.9021" gradientUnits="userSpaceOnUse" id="color-1"><stop offset="0" stop-color="#fcff52"/><stop offset="1" stop-color="#edff00"/></linearGradient><linearGradient x1="246.64408" y1="174.97902" x2="260.32479" y2="174.97902" gradientUnits="userSpaceOnUse" id="color-2"><stop offset="0" stop-color="#00c755"/><stop offset="1" stop-color="#009458"/></linearGradient><linearGradient x1="246.19921" y1="186.05214" x2="259.8799" y2="186.05214" gradientUnits="userSpaceOnUse" id="color-3"><stop offset="0" stop-color="#00c755"/><stop offset="1" stop-color="#009458"/></linearGradient><linearGradient x1="222.65958" y1="180.19823" x2="252.96089" y2="180.19823" gradientUnits="userSpaceOnUse" id="color-4"><stop offset="0" stop-color="#009458"/><stop offset="1" stop-color="#00c755"/></linearGradient><linearGradient x1="249.94152" y1="180.31947" x2="252.66395" y2="180.31947" gradientUnits="userSpaceOnUse" id="color-5"><stop offset="0" stop-color="#003b35"/><stop offset="1" stop-color="#005848"/></linearGradient><radialGradient cx="262.81026" cy="180.6879" r="7.35031" gradientUnits="userSpaceOnUse" id="color-6"><stop offset="0" stop-color="#fdff94"/><stop offset="1" stop-color="#edff00"/></radialGradient></defs><g transform="translate(-221.90958,-164.30066)"><g data-paper-data="{&quot;isPaintingLayer&quot;:true}" fill-rule="nonzero" stroke-width="1.5" stroke-linecap="butt" stroke-linejoin="miter" stroke-miterlimit="10" stroke-dasharray="" stroke-dashoffset="0" style="mix-blend-mode: normal"><path d="M267.94746,181.42441v-0.93066l1.40861,-0.60778l1.62797,1.19656l1.98486,-1.29153l1.79278,1.17757l1.97893,-0.75972l-1.91491,1.65239l-1.81413,-1.13958l-2.02756,1.29153l-1.58529,-1.19656z" fill="url(#color-1)" stroke="#ffb600"/><path d="M250.90016,179.07483l-4.25608,-5.17631c0,0 3.79014,-1.76155 5.68588,-2.64263c1.89663,-0.8815 7.99483,0.07732 7.99483,0.07732c0,0 -4.6224,0.68495 -5.79802,2.41247c-1.19765,1.7599 -3.62661,5.32915 -3.62661,5.32915z" fill="url(#color-2)" stroke="#005467"/><path d="M254.08189,187.28547c1.17562,1.72753 5.79801,2.41247 5.79801,2.41247c0,0 -6.09819,0.95882 -7.99482,0.07732c-1.89574,-0.88109 -5.68587,-2.64263 -5.68587,-2.64263l4.25608,-5.17631c0,0 2.42896,3.56926 3.62661,5.32915z" data-paper-data="{&quot;index&quot;:null}" fill="url(#color-3)" stroke="#005467"/><path d="M237.36344,195.3435c-2.54746,-0.14488 -14.91692,-12.88393 -14.70106,-15.82809c-0.11788,-3.48717 13.17545,-14.72727 15.56861,-14.46006c2.99222,0.3341 15.40579,13.93003 14.70106,15.82809c-0.10927,2.53917 -12.15822,14.65401 -15.56861,14.46006z" fill="url(#color-4)" stroke="#005467"/><path d="M249.94152,184.089v-7.53905h2.72243v7.53905z" fill="url(#color-5)" stroke="#005467"/><path d="M270.16058,180.6879c0,3.87065 -3.29084,7.00844 -7.35031,7.00844c-4.05946,0 -7.35032,-3.13779 -7.35032,-7.00844c0,-3.87065 3.29085,-7.00843 7.35032,-7.00843c4.05946,0 7.35031,3.13778 7.35031,7.00843z" fill="url(#color-6)" stroke="#ffb600"/></g></g></svg>