<svg version="1.1" xmlns="http://www.w3.org/2000/svg" xmlns:xlink="http://www.w3.org/1999/xlink" width="31.78571" height="31.78572" viewBox="0,0,31.78571,31.78572"><defs><radialGradient cx="244.08572" cy="183.91429" r="15.14285" gradientUnits="userSpaceOnUse" id="color-1"><stop offset="0" stop-color="#03a600"/><stop offset="1" stop-color="#096700"/></radialGradient></defs><g transform="translate(-228.19286,-168.02143)"><g data-paper-data="{&quot;isPaintingLayer&quot;:true}" fill-rule="nonzero" stroke="#000000" stroke-width="1.5" stroke-linecap="butt" stroke-linejoin="miter" stroke-miterlimit="10" stroke-dasharray="" stroke-dashoffset="0" style="mix-blend-mode: normal"><path d="M228.94286,192.77143c0,-5.91514 0,-14.3519 0,-17.71429c0,-2.77191 3.79575,-6.28571 6.71429,-6.28571c3.44921,0 11.92516,0 17.71428,0c3.38895,0 5.85714,2.46646 5.85714,5.85714c0,5.83555 0,14.40865 0,17.85715c0,2.8701 -3.45689,6.57143 -7.85714,6.57143c-6.07183,0 -13.93988,0 -17,0c-2.46643,0 -5.42857,-2.67238 -5.42857,-6.28571z" fill="url(#color-1)"/><path d="M234.94286,196.62857v-24.22668h2.76269c0,0 3.89882,-1.4876 5.20661,-1.4876c1.06827,0 3.49207,2.55949 5.43476,3.24998c2.22368,0.79035 4.65969,-1.54986 4.65969,-1.54986l-0.17469,12.28341c0,0 -2.93779,1.68624 -5.31422,0.88023c-1.69412,-0.57459 -4.48952,-2.76587 -5.45529,-2.76261c-1.4733,0.00497 -4.35687,1.92483 -4.35687,1.92483v11.68831z" fill="#b7b7b7"/></g></g></svg>