<svg version="1.1" xmlns="http://www.w3.org/2000/svg" xmlns:xlink="http://www.w3.org/1999/xlink" width="74.77186" height="75.88209" viewBox="0,0,74.77186,75.88209"><g transform="translate(-203.00014,-142.9999)"><g data-paper-data="{&quot;isPaintingLayer&quot;:true}" fill-rule="nonzero" stroke="none" stroke-width="1" stroke-linecap="butt" stroke-linejoin="miter" stroke-miterlimit="10" stroke-dasharray="" stroke-dashoffset="0" style="mix-blend-mode: normal"><path d="M277.772,157.572c0,0.44 -0.02,0.88 -0.08,1.32c-0.44,3.68 -2.38,7.73 -6.3,10.33c0.18,3.5 -0.06,8.04 -0.72,13.82c-0.36,3.12 -0.71,6.2 -1.06,9.26c-0.02,0.19 -0.05,0.38 -0.08,0.57c-1.03,6.14 -2.87,11.05 -5.61,15.01c-1.28,1.92 -3.09,3.71 -5.51,5.47c-2.42,1.75 -4.71,2.92 -7.01,3.58c-4.33,1.31 -8.16,1.95 -11.72,1.95c-2.64,0 -5.08,-0.35 -7.27,-1.05c-4.84,-1.49 -9.16,-4.24 -12.76,-8.13c-2.34,-2.52 -4.06,-5.02 -5.27,-7.64c-1.44,-3.09 -2.26,-7.34 -2.65,-13.72c-0.01,-0.07 -0.01,-0.13 -0.01,-0.2c-0.19,-4.24 -0.5,-10.19 -0.93,-17.77c-3.87,-1.97 -6.61,-5.46 -7.54,-9.77c-0.38,-1.74 -0.33,-3.54 0.15,-5.26c1.34,-4.84 4.88,-8.65 9.72,-10.45c1.29,-0.49 2.79,-0.81 5.54,-1.16c0.93,-0.21 2.03,-0.4 3.36,-0.58c0.2,-0.03 0.4,-0.05 0.6,-0.07c1.14,-0.09 2.5,-0.11 4.75,-0.04h2.74c2.65,-0.15 5.4,0.22 8.23,1.08c2.2,0.66 4.11,1.85 5.6,3.42c0.04,-0.01 0.08,-0.02 0.13,-0.03c0.63,-0.18 1.57,-0.4 4.1,-0.91c0.19,-0.04 0.38,-0.07 0.57,-0.1c0.44,-0.08 2.32,-0.42 10.24,-1.94c3.53,-0.71 7.06,-0.55 10.07,0.53c2.07,0.73 4.88,2.36 6.9,5.99c0.79,1.42 1.82,3.62 1.82,6.49z" fill="#00cccc"/><path d="M266.776,157.568c-0.293,2.408 -2.346,3.523 -6.156,3.348c-0.176,1.821 -0.264,4.523 -0.264,8.106c0.232,2.878 0.029,7.137 -0.615,12.774c-0.354,3.115 -0.705,6.197 -1.057,9.251c-0.762,4.525 -2.053,8.078 -3.869,10.662c-0.529,0.823 -1.482,1.734 -2.859,2.732c-1.379,0.999 -2.595,1.644 -3.65,1.938c-3.285,0.998 -6.157,1.498 -8.62,1.498c-1.525,0 -2.845,-0.178 -3.958,-0.529c-3.05,-0.942 -5.718,-2.646 -8.005,-5.118c-1.525,-1.646 -2.639,-3.235 -3.343,-4.767c-0.821,-1.765 -1.378,-5.029 -1.671,-9.795c-0.235,-5.472 -0.675,-13.68 -1.319,-24.622c0,-0.411 -0.264,-0.999 -0.792,-1.765c-2.229,-0.177 -3.518,-0.293 -3.87,-0.354c-1.525,-0.411 -2.434,-1.293 -2.727,-2.647c0.407,-1.471 1.397,-2.5 2.972,-3.088c0.464,-0.176 1.688,-0.382 3.669,-0.618c0.641,-0.176 1.602,-0.353 2.884,-0.529c0.698,-0.058 1.922,-0.058 3.67,0c-0.118,0 0.977,0 3.286,0c1.421,-0.117 2.989,0.089 4.706,0.617c0.828,0.234 1.243,0.821 1.243,1.762c0,1.175 -0.47,2.027 -1.407,2.555c-0.646,0.413 -1.73,0.677 -3.254,0.793c-1.056,-0.058 -2.375,0.09 -3.959,0.441c-0.411,0.235 -0.615,0.646 -0.615,1.234c0.058,0.47 0.088,0.911 0.088,1.32c-0.06,1.881 0.028,4.554 0.264,8.02c0.176,2.469 0.264,3.996 0.264,4.583v5.463c0,0.176 0.058,0.617 0.176,1.322c0.117,0.705 0.177,1.116 0.177,1.232v6.521c0.176,0.47 0.352,1.175 0.527,2.114c0.176,2.644 1.539,5.172 4.09,7.579c2.551,2.408 5.175,3.612 7.873,3.612c1.113,0 3.166,-0.411 6.157,-1.234c1.172,-0.352 2.257,-1.204 3.254,-2.557c0.997,-1.351 1.612,-2.644 1.847,-3.878c0.293,-0.528 0.645,-1.352 1.057,-2.469c0.527,-2.937 1.201,-7.402 2.023,-13.397c0.584,-6.698 0.672,-12.693 0.264,-17.982c-0.705,-0.058 -1.791,0.06 -3.256,0.352c-1.642,0.411 -2.785,0.616 -3.43,0.616c-1.525,0 -2.639,-0.645 -3.343,-1.936c-0.234,-1.172 0.381,-2.052 1.848,-2.639c0.409,-0.116 1.495,-0.352 3.255,-0.703c0.116,0 3.693,-0.674 10.73,-2.023c1.76,-0.352 3.195,-0.321 4.311,0.088c0.352,0.118 0.674,0.441 0.967,0.969c0.29,0.53 0.437,0.912 0.437,1.148z" fill="#ffffff"/></g></g></svg>