<svg version="1.1" xmlns="http://www.w3.org/2000/svg" xmlns:xlink="http://www.w3.org/1999/xlink" width="53.25458" height="26.39149" viewBox="0,0,53.25458,26.39149"><defs><linearGradient x1="232.92294" y1="180.6125" x2="259.55875" y2="180.6125" gradientUnits="userSpaceOnUse" id="color-1"><stop offset="0" stop-color="#00a6b2"/><stop offset="1" stop-color="#00cce3"/></linearGradient><linearGradient x1="258.99207" y1="180.59583" x2="260.73374" y2="180.59583" gradientUnits="userSpaceOnUse" id="color-2"><stop offset="0" stop-color="#000000"/><stop offset="1" stop-color="#1e1e1e"/></linearGradient><linearGradient x1="224.65579" y1="179.95821" x2="248.7966" y2="179.95821" gradientUnits="userSpaceOnUse" id="color-3"><stop offset="0" stop-color="#00a6b2"/><stop offset="1" stop-color="#00cce3"/></linearGradient><linearGradient x1="259.33798" y1="180.76585" x2="273.98979" y2="180.76585" gradientUnits="userSpaceOnUse" id="color-4"><stop offset="0" stop-color="#98c867"/><stop offset="1" stop-color="#989767"/></linearGradient><linearGradient x1="259.48881" y1="180.99535" x2="265.02748" y2="180.99535" gradientUnits="userSpaceOnUse" id="color-5"><stop offset="0" stop-color="#98e967"/><stop offset="1" stop-color="#98d667"/></linearGradient></defs><g transform="translate(-223.90579,-166.76246)"><g data-paper-data="{&quot;isPaintingLayer&quot;:true}" fill-rule="nonzero" stroke="#005467" stroke-width="1.5" stroke-linecap="butt" stroke-linejoin="miter" stroke-miterlimit="10" stroke-dasharray="" stroke-dashoffset="0" style="mix-blend-mode: normal"><path d="M238.11614,185.20252c0,0 -4.89123,0.11922 -5.17346,-4.40958c-0.37054,-5.94562 4.59783,-4.89547 4.59783,-4.89547l22.01824,-0.5v10.43005z" fill="url(#color-1)"/><path d="M260.73374,180.59583c0,2.93401 -0.38988,5.3125 -0.87083,5.3125c-0.48095,0 -0.87083,-2.37849 -0.87083,-5.3125c0,-2.93401 0.38988,-5.3125 0.87083,-5.3125c0.48095,0 0.87083,2.37849 0.87083,5.3125z" fill="url(#color-2)"/><path d="M226.13312,190.80054c-1.76796,-1.8398 -2.16178,-19.59175 0,-21.60207c2.28678,-2.63531 19.67629,-1.82443 21.24794,0c1.96507,2.28112 1.80807,20.69094 0,21.60207c-1.80807,1.78612 -18.8811,2.46302 -21.24794,0z" fill="url(#color-3)"/><g><path d="M259.73812,185.94116c0,0 -0.40014,-4.03038 -0.40014,-5.8531c0,-1.59777 0.40014,-4.49752 0.40014,-4.49752l13.21893,-3.80538l-5.751,4.88136l5.50954,3.50341l-5.44377,4.08557l6.71797,5.49104z" fill="url(#color-4)"/><path d="M259.601,183.01883c0,0 -0.11219,-1.48788 -0.11219,-2.25299c0,-0.68882 0,-1.96342 0,-1.96342l5.18609,-1.61245l-1.9634,2.06837l1.88096,1.4845l-1.8585,1.73117l2.29352,2.32671z" fill="url(#color-5)"/></g></g></g></svg>